<?xml version="1.0" encoding="iso-8859-1"?>
<!-- Uploaded to: SVG Repo, www.svgrepo.com, Generator: SVG Repo Mixer Tools -->
<svg height="38px" width="38px" version="1.1" id="Layer_1" xmlns="http://www.w3.org/2000/svg" xmlns:xlink="http://www.w3.org/1999/xlink" 
	 viewBox="0 0 473.935 473.935" xml:space="preserve">
<circle style="fill:#74b4d2;" cx="236.967" cy="236.967" r="236.967"/>
<path style="fill:#74b4d2;" d="M404.517,69.377c92.549,92.549,92.549,242.595,0,335.144c-92.542,92.542-242.595,92.546-335.144,0
	L404.517,69.377z"/>
<path style="fill:#74b4d2;" d="M460.128,316.735L243.411,100.018L156.1,187.333l9.362,9.369l-19.528,19.02L237.6,307.38
	l-49.074,49.579l109.103,109.103C373.255,446.085,434.051,389.674,460.128,316.735z"/>
<path style="fill:#EDF0F3;" d="M243.789,99.891v71.547h67.154v44.449h-67.154v72.602c0,16.408,0.857,26.937,2.586,31.596
	c1.747,4.647,4.954,8.367,9.714,11.162c6.271,3.764,13.411,5.65,21.485,5.65c14.331,0,28.583-4.688,42.754-13.994v44.647
	c-12.086,5.71-23.049,9.706-32.857,12.004c-9.792,2.29-20.404,3.435-31.805,3.435c-12.935,0-24.359-1.628-34.312-4.909
	c-9.953-3.27-18.432-7.933-25.455-13.964c-7.023-6.054-11.891-12.494-14.608-19.319c-2.705-6.788-4.056-16.662-4.056-29.605v-99.303
	h-31.3v-40.075c11.132-3.596,20.673-8.782,28.569-15.513c7.951-6.758,14.309-14.859,19.098-24.318
	c4.801-9.448,8.105-21.474,9.916-36.09H243.789z"/>
</svg>